<?xml version="1.0" encoding="UTF-8"?>
<svg id="Calque_1" data-name="Calque 1" xmlns="http://www.w3.org/2000/svg" viewBox="0 0 319.25 303.44">
  <defs>
    <style>
      .cls-1 {
        fill: #fff;
        stroke-width: 0px;
      }
    </style>
  </defs>
  <path class="cls-1" d="m143.71,183.88c0-1.45,0-2.91,0-4.36,0-53.66,0-107.31.02-160.97,0-2.35,0-4.8.61-7.04,2.08-7.74,9.28-12.31,17.48-11.39,7.45.84,13.27,7.21,13.63,15,.12,2.62.06,5.24.06,7.86,0,52.16,0,104.32,0,156.48v5.41c1.58-1.45,2.54-2.28,3.44-3.18,16.21-16.26,32.38-32.56,48.64-48.77,7.22-7.2,17.56-7.06,23.87.13,5.36,6.11,5.41,15.03,0,21.2-1.97,2.25-4.17,4.29-6.29,6.41-24.17,24.18-48.34,48.36-72.52,72.53-8.65,8.65-17.4,8.66-26.01.05-25.85-25.85-51.71-51.69-77.54-77.57-7.17-7.19-7.15-17.56-.09-23.89,6.7-6.01,15.94-5.54,22.83,1.33,13.17,13.13,26.26,26.32,39.38,39.5,3.86,3.88,7.69,7.78,11.54,11.68.31-.13.63-.27.94-.4Z"/>
  <path class="cls-1" d="m159.49,303.42c-47.54,0-95.08.01-142.62-.01-10.07,0-17.09-6.93-16.86-16.48.18-7.43,5.37-13.66,12.68-15.04,1.94-.37,3.96-.46,5.95-.46,93.95-.02,187.91-.03,281.86.02,2.71,0,5.55.2,8.1,1.01,7.32,2.32,11.49,9.46,10.51,17.35-.89,7.21-7.27,13.09-14.76,13.56-1.37.09-2.74.04-4.12.04-46.91,0-93.83,0-140.74,0Z"/>
</svg>