<svg xmlns="http://www.w3.org/2000/svg" xmlns:xlink="http://www.w3.org/1999/xlink" width="20" height="20" viewBox="0 0 20 20">
  <defs>
    <clipPath id="clip-path">
      <rect id="Rectangle_2" data-name="Rectangle 2" width="20" height="20" transform="translate(1098 51)" fill="#fff" stroke="#707070" stroke-width="1"/>
    </clipPath>
  </defs>
  <g id="Groupe_2" data-name="Groupe 2" transform="translate(-1098 -51)" clip-path="url(#clip-path)">
    <g id="email_1_" data-name="email (1)" transform="translate(1098 53.383)">
      <g id="Groupe_1" data-name="Groupe 1">
        <path id="Tracé_5" data-name="Tracé 5" d="M18.242,5.957H1.758A1.761,1.761,0,0,0,0,7.715V19.434a1.761,1.761,0,0,0,1.758,1.758H18.242A1.761,1.761,0,0,0,20,19.434V7.715A1.761,1.761,0,0,0,18.242,5.957ZM18,7.129l-7.962,7.962L2.006,7.129ZM1.172,19.191V7.952l5.644,5.6ZM2,20.02l5.647-5.647,1.979,1.962a.586.586,0,0,0,.827,0L12.383,14.4,18,20.02Zm16.828-.829-5.617-5.617,5.617-5.617Z" transform="translate(0 -5.957)" fill="#fff"/>
      </g>
    </g>
  </g>
</svg>
