<?xml version="1.0" encoding="UTF-8"?>
<svg id="Calque_1" data-name="Calque 1" xmlns="http://www.w3.org/2000/svg" viewBox="0 0 14.94 14.96">
  <defs>
    <style>
      .cls-1 {
        fill: #fff;
        stroke-width: 0px;
      }
    </style>
  </defs>
  <path class="cls-1" d="m11.21,11.07c.15.44.17.89.16,1.35-.01.58,0,1.16,0,1.74,0,.42-.25.73-.61.79-.43.07-.83-.27-.84-.73,0-.68,0-1.36,0-2.04,0-.42-.11-.8-.38-1.12-.21-.25-.3-.52-.17-.83.13-.32.39-.43.71-.49.48-.09.97-.18,1.43-.34.86-.3,1.43-.91,1.7-1.78.27-.84.37-1.7.16-2.58-.06-.27-.17-.54-.32-.77-.38-.58-.49-1.19-.37-1.87.05-.27,0-.56,0-.87-.55.17-1.02.41-1.44.72-.3.22-.59.27-.95.17-1.27-.34-2.56-.33-3.83.01-.33.09-.6.04-.87-.16-.44-.33-.92-.56-1.46-.73-.09.36-.07.7,0,1.05.09.51.03,1.02-.26,1.45-.55.82-.63,1.73-.51,2.67.06.44.16.87.35,1.28.41.87,1.14,1.34,2.04,1.57.35.09.71.15,1.06.21.3.05.51.2.62.48.11.28.05.53-.14.75-.31.35-.43.75-.42,1.21.01.65,0,1.31,0,1.97,0,.34-.16.58-.47.71-.27.12-.6.04-.81-.17-.14-.14-.21-.31-.21-.5,0-.14,0-.28,0-.43-.3,0-.58.02-.86,0-1.17-.09-2.16-.57-2.95-1.43-.33-.36-.68-.66-1.14-.86-.37-.16-.52-.6-.36-.96.16-.37.58-.55.96-.4.5.2.94.5,1.32.88.22.22.45.44.69.65.67.57,1.43.76,2.28.59.06-.39.11-.78.17-1.19-.2-.07-.44-.14-.68-.23-1.65-.63-2.58-1.85-2.89-3.56-.16-.87-.23-1.76.03-2.62.13-.43.34-.83.54-1.23.1-.21.17-.39.13-.63-.13-.74-.06-1.47.2-2.17C2.98.19,3.22.01,3.69,0c.5-.01.97.13,1.42.33.33.15.65.33.97.52.11.06.21.09.34.06,1.3-.29,2.61-.29,3.91,0,.13.03.22,0,.33-.06.58-.36,1.18-.68,1.85-.8.25-.05.52-.04.78-.02.28.03.48.21.58.47.29.73.39,1.48.25,2.25-.04.24,0,.45.13.66.48.76.7,1.59.68,2.48-.01.88-.13,1.74-.47,2.55-.59,1.38-1.65,2.18-3.08,2.55-.05.01-.09.02-.14.04-.02,0-.03.02-.05.03Z"/>
</svg>