<?xml version="1.0" encoding="UTF-8"?>
<svg id="Calque_1" data-name="Calque 1" xmlns="http://www.w3.org/2000/svg" viewBox="0 0 408.88 260.5">
  <defs>
    <style>
      .cls-1 {
        fill: #fff;
        stroke-width: 0px;
      }
    </style>
  </defs>
  <path class="cls-1" d="m0,127.88c1.97-3.28,3.59-6.84,5.95-9.8,28.79-36.09,62.21-67.03,102.37-90.18C134.76,12.66,162.98,2.42,193.68.36c28.12-1.89,55.03,3.64,80.83,14.67,36.97,15.81,68.59,39.44,96.71,67.8,11.68,11.78,22.35,24.59,33.14,37.22,6.13,7.17,5.91,13.07.06,20.48-29.03,36.78-62.76,68.34-103.52,91.84-32,18.46-66.15,29.61-103.63,27.95-25.73-1.14-50.01-8.08-73.05-19.39-48.37-23.76-87.09-59.08-120.22-100.99C2.3,137.81,1.32,135.11,0,132.67c0-1.6,0-3.19,0-4.79Zm30.47,2.67c7.92,8.55,15.37,17.05,23.3,25.07,26.27,26.59,55.3,49.44,89.87,64.42,17.3,7.5,35.29,12.43,54.27,13.33,29.01,1.37,55.69-6.71,81.1-19.85,28.39-14.68,52.97-34.5,75.33-57.13,8.2-8.3,15.89-17.1,23.97-25.85-1.48-1.76-2.5-3.14-3.68-4.35-12.53-12.85-24.5-26.31-37.75-38.36-24.77-22.5-52.29-40.9-84.15-52.19-32.18-11.4-64.29-11.42-96.47-.11-27.7,9.74-52.04,25.19-74.59,43.69-18.56,15.23-35.29,32.29-51.2,51.31Z"/>
  <path class="cls-1" d="m204.65,49.5c44.77.24,80.95,36.74,80.52,81.23-.43,44.71-36.61,80.56-81.03,80.32-44.78-.25-80.94-36.73-80.51-81.23.43-44.72,36.58-80.56,81.02-80.32Zm-.12,134.65c29.78-.19,53.74-24.26,53.7-53.92-.05-29.71-24.08-53.76-53.78-53.84-29.71-.08-54.26,24.56-53.93,54.12.33,29.85,24.48,53.83,54.02,53.64Z"/>
</svg>